<svg xmlns="http://www.w3.org/2000/svg" viewBox="0 0 24 24" fill="currentColor">
  <path d="M12 2a10 10 0 0 0-3.162 19.494c.5.092.684-.216.684-.48 0-.236-.01-1.02-.014-1.85-2.782.604-3.368-1.186-3.368-1.186-.455-1.156-1.11-1.465-1.11-1.465-.908-.62.07-.607.07-.607 1.004.07 1.532 1.03 1.532 1.03.892 1.53 2.341 1.088 2.91.832.09-.646.35-1.09.636-1.341-2.222-.253-4.556-1.112-4.556-4.948 0-1.092.39-1.985 1.03-2.684-.104-.253-.447-1.27.098-2.645 0 0 .842-.27 2.757 1.026A9.56 9.56 0 0 1 12 6.844a9.56 9.56 0 0 1 2.507.338c1.914-1.296 2.755-1.026 2.755-1.026.547 1.375.204 2.392.1 2.645.64.699 1.028 1.592 1.028 2.684 0 3.846-2.338 4.693-4.566 4.942.36.31.68.919.68 1.852 0 1.337-.012 2.417-.012 2.744 0 .267.18.576.69.477A10 10 0 0 0 12 2z"/>
</svg>
